<svg width="252" height="82" xmlns="http://www.w3.org/2000/svg" xmlns:xlink="http://www.w3.org/1999/xlink" xml:space="preserve" overflow="hidden"><g transform="translate(-40 -28)"><g><g><g><g><path d="M86.5795 16.7148 86.5795 0.252014 94.8203 0.252014 94.8203 3.5408 89.8683 3.5408 89.8683 6.86109 94.1966 6.86109 94.1966 10.1562 89.8683 10.1562 89.8683 13.445 95.0976 13.445 95.0976 16.74ZM114.068 0 115.107 0 115.107 16.7148 111.768 16.7148 111.768 7.52892 107.56 11.9392 103.345 7.52892 103.345 16.7148 100.006 16.7148 100.006 0 101.064 0 107.56 7.22651ZM120.652 0.226813 127.173 0.226813C130.096 0.226813 131.911 2.32483 131.841 5.22299 131.875 6.48338 131.312 7.6858 130.323 8.46768 131.398 9.21969 132.036 10.4509 132.03 11.7628 132.062 14.4662 129.896 16.6833 127.192 16.7147 127.185 16.7147 127.179 16.7148 127.173 16.7148L120.652 16.7148ZM123.972 6.86109 126.895 6.86109C127.811 6.7812 128.488 5.97459 128.408 5.05946 128.338 4.25508 127.7 3.61731 126.895 3.5471L123.972 3.5471ZM123.972 13.445 126.895 13.445C127.8 13.4555 128.542 12.7306 128.552 11.826 128.552 11.8133 128.552 11.8006 128.552 11.788 128.563 10.8973 127.85 10.1664 126.959 10.1557 126.938 10.1554 126.917 10.1556 126.895 10.1562L123.972 10.1562ZM136.8 16.7148 136.8 0.252014 145.04 0.252014 145.04 3.5408 140.095 3.5408 140.095 6.86109 144.423 6.86109 144.423 10.1562 140.095 10.1562 140.095 13.445 145.318 13.445 145.318 16.74ZM155.146 16.7148 150.238 16.7148 150.238 0.252014 155.146 0.252014C166.103 0.252014 166.103 16.7148 155.146 16.7148ZM153.533 3.5408 153.533 13.4198 155.146 13.4198C161.547 13.4198 161.547 3.5408 155.146 3.5408ZM173.197 16.7148 168.301 16.7148 168.301 0.252014 173.203 0.252014C184.153 0.252014 184.153 16.7148 173.197 16.7148ZM171.584 3.5408 171.584 13.4198 173.197 13.4198C179.598 13.4198 179.598 3.5408 173.197 3.5408ZM186.346 16.7148 186.346 0.252014 194.586 0.252014 194.586 3.5408 189.634 3.5408 189.634 6.86109 193.963 6.86109 193.963 10.1562 189.634 10.1562 189.634 13.445 194.864 13.445 194.864 16.74ZM204.692 16.7148 199.803 16.7148 199.803 0.252014 204.705 0.252014C215.655 0.252014 215.655 16.7148 204.692 16.7148ZM203.079 3.5408 203.079 13.4198 204.692 13.4198C211.093 13.4198 211.093 3.5408 204.692 3.5408ZM89.8683 27.8791 89.8683 41.0531 95.0976 41.0531 95.0976 44.3419 86.5795 44.3419 86.5795 27.8791ZM99.7724 44.3419 99.7724 27.8791 103.061 27.8791 103.061 44.3419ZM111.907 44.3419 108.612 44.3419 108.612 27.5326 109.488 27.5326 117.798 37.2036 117.798 27.9043 121.112 27.9043 121.112 44.6632 120.236 44.6632 111.907 35.3639ZM126.568 38.6086 126.568 27.898 129.869 27.898 129.869 38.6086C129.869 42.0612 135.212 42.0612 135.212 38.6086L135.212 27.898 138.482 27.898 138.482 38.6086C138.476 46.4399 126.568 46.4399 126.568 38.6086ZM147.428 35.5718 142.968 27.8602 146.949 27.8602 149.432 32.4405 151.895 27.8602 155.789 27.8602 151.29 35.5718 156.476 44.3419 152.582 44.3419 149.432 38.6716 146.282 44.3419 142.275 44.3419ZM94.1966 58.6185C87.682 58.6185 87.682 68.655 94.1966 68.655 95.3004 68.6632 96.3904 68.4105 97.3783 67.9178L97.813 71.3263C96.6582 71.7686 95.4334 72.0036 94.1966 72.0194 83.0324 72.0194 83.0576 55.3045 94.1966 55.3045 95.3124 55.2883 96.4187 55.5028 97.4476 55.9346L97.0507 59.3178C96.1787 58.8343 95.1933 58.5929 94.1966 58.6185ZM110.2 55.2352C121.54 55.2352 121.54 72.2021 110.2 72.2021 98.8589 72.2021 98.8715 55.2352 110.2 55.2352ZM110.2 58.6185C103.616 58.6185 103.616 68.7936 110.2 68.7936 116.783 68.7936 116.783 58.6185 110.2 58.6185ZM126.914 71.9753 123.626 71.9753 123.626 55.1659 124.501 55.1659 132.811 64.8244 132.811 55.5313 136.125 55.5313 136.125 72.3155 135.25 72.3155 126.914 63.0162ZM144.99 58.8012 144.99 62.0963 149.186 62.0963 149.186 65.3851 144.99 65.3851 144.99 71.9753 141.701 71.9753 141.701 55.5124 149.892 55.5124 149.892 58.8012ZM154.441 71.9753 154.441 55.5124 162.694 55.5124 162.694 58.8012 157.748 58.8012 157.748 62.0963 162.077 62.0963 162.077 65.3851 157.748 65.3851 157.748 68.6802 162.971 68.6802 162.971 71.9753ZM176.095 71.9753 172.781 65.6749 171.193 65.6749 171.193 71.9753 167.898 71.9753 167.898 55.5124 174.394 55.5124C180.266 55.5124 180.839 63.7785 176.007 65.1835L179.825 71.9753ZM171.193 62.4869 174.091 62.4869C176.328 62.4869 176.328 58.8012 174.091 58.8012L171.193 58.8012ZM183.857 71.9753 183.857 55.5124 192.098 55.5124 192.098 58.8012 187.146 58.8012 187.146 62.0963 191.474 62.0963 191.474 65.3851 187.146 65.3851 187.146 68.6802 192.375 68.6802 192.375 71.9753ZM200.597 71.9753 197.283 71.9753 197.283 55.1659 198.159 55.1659 206.488 64.8244 206.488 55.5313 209.802 55.5313 209.802 72.3155 208.932 72.3155 200.597 63.0162ZM222.976 58.6185C216.461 58.6185 216.461 68.655 222.976 68.655 224.069 68.6588 225.148 68.4061 226.126 67.9178L226.567 71.3263C225.412 71.7686 224.187 72.0036 222.951 72.0194 211.78 72.0194 211.805 55.3045 222.951 55.3045 224.064 55.2875 225.169 55.5021 226.195 55.9346L225.805 59.3178C224.94 58.8403 223.964 58.5992 222.976 58.6185ZM231.059 71.9753 231.059 55.5124 239.3 55.5124 239.3 58.8012 234.348 58.8012 234.348 62.0963 238.676 62.0963 238.676 65.3851 234.348 65.3851 234.348 68.6802 239.577 68.6802 239.577 71.9753Z" fill="#FFFFFF" fill-rule="nonzero" fill-opacity="1" transform="matrix(1.0034 0 0 1 45.8109 32.9336)"/><path d="M17.5591 82.3834C16.1203 84.0719 15.2652 86.18 15.1209 88.394 15.1209 90.9141 16.3368 93.3461 18.6932 95.7024 23.9413 90.6054 29.284 85.3509 34.5322 80.0145 35.502 82.4452 37.3413 84.4279 39.6922 85.5777 29.032 92.3569 23.2483 98.2918 18.9011 108.795 17.5004 107.891 16.177 106.874 14.9444 105.751 14.3144 105.216 13.7978 104.529 13.1929 104 12.1048 102.947 11.1118 101.8 10.2255 100.573 9.38766 99.3919 8.64806 98.1444 8.01405 96.8428 7.42446 95.7024 6.97594 94.494 6.67838 93.2453 6.36966 91.7955 6.2155 90.3175 6.21845 88.835 6.20076 87.4023 6.45963 85.9797 6.98079 84.6453 9.79705 82.3834 11.6242 81.7723 17.5591 82.3834Z" fill="#FFFFFF" fill-rule="evenodd" fill-opacity="1" transform="matrix(1.0034 0 0 1 39.5713 -8.088)"/><path d="M18.9326 108.795C19.0838 104.302 20.0729 100.497 23.5003 96.7672 27.3813 92.5081 33.6943 86.6488 39.6355 85.5777 34.5322 90.8322 29.284 95.9292 24.1052 100.881 26.6946 103.238 28.8997 104.454 30.8024 104.454 32.3222 104.597 33.8514 104.306 35.2127 103.616 36.4113 102.84 37.5317 101.949 38.5582 100.957L43.1259 105.292 43.2015 105.367 43.1259 105.443C41.4488 107.101 39.5839 108.558 37.569 109.784 33.0501 112.431 27.5412 112.77 22.7317 110.697 21.3937 110.217 20.1182 109.578 18.9326 108.795ZM6.98079 84.7461C10.1822 83.8218 13.4344 83.0834 16.7211 82.5347 17.0299 82.5347 17.3512 82.4591 17.5591 82.4591 17.9283 82.0035 18.3374 81.582 18.7814 81.199L29.6621 70.2364C27.835 68.4093 26.0079 66.5822 24.1808 64.837 20.5266 68.4093 16.8787 72.0635 13.2244 75.7177 12.0698 76.8417 11.0157 78.0646 10.0743 79.3719 9.04359 80.7498 8.15291 82.2272 7.41552 83.7821 7.19847 84.0656 7.04972 84.3958 6.98079 84.7461ZM49.0735 101.259C50.343 102.385 52.0208 102.936 53.7105 102.784 55.6006 102.551 57.4907 101.335 59.4943 99.0542 56.1488 95.0157 52.3434 90.6054 47.9268 85.7352 50.141 84.6793 51.8788 82.8314 52.797 80.5563 57.8373 90.3723 61.7057 95.0472 67.7918 97.2271 67.1051 98.4386 66.3434 99.6067 65.5111 100.724 65.1268 101.259 64.6731 101.795 64.2132 102.324 63.4553 103.31 62.6122 104.227 61.6931 105.065 60.8303 105.86 59.9147 106.598 58.9524 107.27 58.1267 107.88 57.2322 108.392 56.2874 108.795 55.2672 109.237 54.1933 109.545 53.0931 109.708 52.0502 109.915 50.9747 109.889 49.9429 109.632 48.3867 107.736 48.078 106.281 49.0735 101.259Z" fill="#FFFFFF" fill-rule="evenodd" fill-opacity="1" transform="matrix(1.0034 0 0 1 39.5713 -8.088)"/><path d="M67.7918 97.2271C65.1507 97.9163 62.3513 96.9914 60.6409 94.8645 57.7491 91.897 53.553 86.3149 52.797 80.5563 56.9111 85.3509 60.4897 89.8431 63.5076 93.9509 65.2591 91.519 66.2482 89.5406 66.3994 87.7891 66.55 86.5259 66.4732 85.2457 66.1726 84.0089 65.714 83.0053 65.1791 82.0388 64.5723 81.1171 65.6371 79.5168 66.7019 78.0677 67.7225 76.5493L67.7981 76.4737 67.7981 76.5493C68.7967 78.0614 69.5912 79.6989 70.1608 81.4195 70.6912 83.1181 70.9212 84.896 70.8412 86.674 70.7467 89.1696 70.2269 91.6305 69.3039 93.9509 68.8604 95.0698 68.3557 96.1636 67.7918 97.2271ZM49.9807 109.708C49.6027 106.816 49.1491 103.408 49.1491 101.946L49.1491 101.184C48.8008 100.9 48.4705 100.595 48.1599 100.27 45.2617 97.2252 42.141 94.0284 38.7976 90.681L33.3919 96.0804C36.8193 99.3566 40.0136 102.551 43.0566 105.443 43.9527 106.289 44.9202 107.056 45.9485 107.736 46.9935 108.428 48.1191 108.992 49.3003 109.412 49.4969 109.569 49.7317 109.672 49.9807 109.708ZM37.2729 50.6486C35.6426 49.3311 33.6538 48.5343 31.5648 48.3615 29.2084 48.2103 26.9214 49.1239 24.6344 51.1778 29.7314 55.8968 34.9859 60.9181 40.1585 66.0214 37.8195 66.9835 35.9403 68.8087 34.9103 71.1184 28.1374 60.5401 22.0512 55.1344 10.9374 51.4046 11.9349 50.1222 13.0577 48.9424 14.2892 47.8827 14.9192 47.3472 15.5808 46.8935 16.1793 46.358 17.2528 45.4409 18.4282 44.6503 19.6823 44.0017 20.8534 43.3502 22.073 42.7899 23.3302 42.3258 24.4462 41.9294 25.5924 41.6239 26.7576 41.4122 28.095 41.2487 29.4439 41.1981 30.7898 41.261 32.1178 41.3467 33.4258 41.6292 34.6709 42.099 36.8193 44.4805 37.4997 45.9296 37.2729 50.6486ZM65.0512 70.7404C65.8305 69.2415 66.1733 67.5543 66.0403 65.8702 65.7404 63.5391 64.7607 61.3479 63.2241 59.5699 60.4078 63.3501 56.9867 67.5587 53.0301 72.1706 52.1083 69.8949 50.4456 67.9972 48.3111 66.7838 56.7032 61.3781 60.1054 56.8859 60.9433 49.1995 61.9325 50.1886 62.8334 51.1778 63.7596 52.2425 64.2132 52.7781 64.5975 53.3073 65.0197 53.9184 65.7751 54.8846 66.4631 55.9014 67.0799 56.9615 67.6488 57.9801 68.156 59.0321 68.5983 60.1117 69.0021 61.0569 69.3575 62.0221 69.663 63.0036 69.9673 64.1275 70.1967 65.2704 70.3498 66.4246 70.4884 67.5115 70.5136 68.609 70.4254 69.7008 69.2409 71.194 68.403 71.5783 65.0512 70.7404Z" fill="#FFFFFF" fill-rule="evenodd" fill-opacity="1" transform="matrix(1.0034 0 0 1 39.5713 -8.088)"/><path d="M60.9433 49.0483C61.7057 52.5513 61.7057 55.4431 60.0298 58.0263 57.8247 61.3781 53.4081 66.097 48.3111 66.7082 52.419 62.216 56.0732 58.1019 59.1162 54.5296 56.9867 52.1669 55.1596 50.7998 53.7105 50.491 52.5877 50.1746 51.3958 50.2031 50.2894 50.5729 49.3831 51.072 48.5604 51.7098 47.8512 52.4631 46.1753 50.8628 44.5057 49.2625 42.8109 47.7441L42.6597 47.6622 42.7353 47.6622C44.0276 46.4511 45.5197 45.4727 47.1456 44.7703 48.6181 44.1821 50.2129 43.9657 51.7889 44.1403 54.1124 44.518 56.3079 45.459 58.1838 46.8809 59.1701 47.5144 60.0941 48.2402 60.9433 49.0483ZM70.3813 69.5181C68.7892 70.0404 67.1612 70.4493 65.5111 70.7404L64.9756 70.7404C64.8218 71.1373 64.5906 71.499 64.2951 71.8051 62.0837 74.8482 59.5762 78.0425 56.9111 81.3943 58.2783 83.0702 59.5762 84.6642 60.7921 86.2645 63.3816 82.919 65.6623 79.6428 67.7225 76.5997 68.3022 75.6786 68.81 74.714 69.2409 73.7142 69.6744 72.604 70.0058 71.4567 70.2301 70.2868 70.3472 70.0486 70.3995 69.7834 70.3813 69.5181ZM10.8618 51.4046C15.7509 51.4802 19.7705 52.2929 23.5759 55.4431 27.9106 59.0154 33.7699 65.1835 34.8347 71.194 29.6621 65.9458 24.4076 60.8425 19.3106 55.9724 16.7232 58.4085 15.354 60.6157 15.2028 62.594 15.0515 64.5723 15.354 66.0214 15.9651 67.0043 16.7749 68.2221 17.7197 69.3442 18.7814 70.3498L13.3757 75.7555 13.3 75.8311 13.2244 75.7555C11.4489 73.9939 9.89011 72.0269 8.58108 69.8961 7.43562 67.9462 6.75845 65.7574 6.60277 63.5013 6.3861 60.5361 7.04323 57.5725 8.49288 54.9769 9.18409 53.7237 9.97636 52.529 10.8618 51.4046Z" fill="#FFFFFF" fill-rule="evenodd" fill-opacity="1" transform="matrix(1.0034 0 0 1 39.5713 -8.088)"/><path d="M34.5322 42.2124C35.5762 44.7316 36.4414 47.3212 37.1217 49.9618 37.1973 50.1886 37.1973 50.4154 37.2729 50.6486 37.6509 50.951 38.1109 51.329 38.5645 51.7133 41.9919 54.9832 45.4949 58.4862 48.8404 61.9073 50.2894 60.3889 51.6566 58.9398 52.9545 57.497 49.6783 54.0696 46.3328 50.7998 42.8739 47.5236 41.811 46.5455 40.6919 45.6303 39.5221 44.7829 38.22 43.9508 36.874 43.1894 35.4899 42.5022 35.1649 42.4257 34.8451 42.3289 34.5322 42.2124Z" fill="#FFFFFF" fill-rule="evenodd" fill-opacity="1" transform="matrix(1.0034 0 0 1 39.5713 -8.088)"/></g></g></g></g></g></svg>