<svg version="1.1" xmlns="http://www.w3.org/2000/svg" viewBox="0 0 838.216796875 269.837890625" width="1676.43359375" height="539.67578125">
  <!-- svg-source:excalidraw -->
  
  <defs>
    <style class="style-fonts">
      @font-face {
        font-family: "Virgil";
        src: url("https://excalidraw.com/Virgil.woff2");
      }
      @font-face {
        font-family: "Cascadia";
        src: url("https://excalidraw.com/Cascadia.woff2");
      }
      @font-face {
        font-family: "Assistant";
        src: url("https://app.excalidraw.com//dist/excalidraw-assets/Assistant-Regular.woff2");
      }
    </style>
    
  </defs>
  <g stroke-linecap="round" transform="translate(10 14.091796875) rotate(0 165.056640625 122.873046875)"><path d="M32 0 C98.72 0, 165.45 0, 298.11 0 M32 0 C106.62 0, 181.24 0, 298.11 0 M298.11 0 C319.45 0, 330.11 10.67, 330.11 32 M298.11 0 C319.45 0, 330.11 10.67, 330.11 32 M330.11 32 C330.11 89.08, 330.11 146.17, 330.11 213.75 M330.11 32 C330.11 89.81, 330.11 147.61, 330.11 213.75 M330.11 213.75 C330.11 235.08, 319.45 245.75, 298.11 245.75 M330.11 213.75 C330.11 235.08, 319.45 245.75, 298.11 245.75 M298.11 245.75 C204.43 245.75, 110.74 245.75, 32 245.75 M298.11 245.75 C238.7 245.75, 179.29 245.75, 32 245.75 M32 245.75 C10.67 245.75, 0 235.08, 0 213.75 M32 245.75 C10.67 245.75, 0 235.08, 0 213.75 M0 213.75 C0 164.17, 0 114.59, 0 32 M0 213.75 C0 151.9, 0 90.05, 0 32 M0 32 C0 10.67, 10.67 0, 32 0 M0 32 C0 10.67, 10.67 0, 32 0" stroke="#1e1e1e" stroke-width="2" fill="none"></path></g><g transform="translate(98.8567123413086 49.46484375) rotate(0 76.1999282836914 87.5)"><text x="76.1999282836914" y="17.52" font-family="Virgil, Segoe UI Emoji" font-size="20px" fill="#1e1e1e" text-anchor="middle" style="white-space: pre;" direction="ltr" dominant-baseline="alphabetic">my_rust_binary</text><text x="76.1999282836914" y="42.519999999999996" font-family="Virgil, Segoe UI Emoji" font-size="20px" fill="#1e1e1e" text-anchor="middle" style="white-space: pre;" direction="ltr" dominant-baseline="alphabetic"></text><text x="76.1999282836914" y="67.52" font-family="Virgil, Segoe UI Emoji" font-size="20px" fill="#1e1e1e" text-anchor="middle" style="white-space: pre;" direction="ltr" dominant-baseline="alphabetic"></text><text x="76.1999282836914" y="92.52" font-family="Virgil, Segoe UI Emoji" font-size="20px" fill="#1e1e1e" text-anchor="middle" style="white-space: pre;" direction="ltr" dominant-baseline="alphabetic"></text><text x="76.1999282836914" y="117.52" font-family="Virgil, Segoe UI Emoji" font-size="20px" fill="#1e1e1e" text-anchor="middle" style="white-space: pre;" direction="ltr" dominant-baseline="alphabetic"></text><text x="76.1999282836914" y="142.52" font-family="Virgil, Segoe UI Emoji" font-size="20px" fill="#1e1e1e" text-anchor="middle" style="white-space: pre;" direction="ltr" dominant-baseline="alphabetic"></text><text x="76.1999282836914" y="167.52" font-family="Virgil, Segoe UI Emoji" font-size="20px" fill="#1e1e1e" text-anchor="middle" style="white-space: pre;" direction="ltr" dominant-baseline="alphabetic"></text></g><g stroke-linecap="round" transform="translate(44.3359375 139.525390625) rotate(0 136.876953125 53.2890625)"><path d="M26.64 0 C95.11 0, 163.58 0, 247.11 0 M26.64 0 C108.26 0, 189.88 0, 247.11 0 M247.11 0 C264.87 0, 273.75 8.88, 273.75 26.64 M247.11 0 C264.87 0, 273.75 8.88, 273.75 26.64 M273.75 26.64 C273.75 44.98, 273.75 63.32, 273.75 79.93 M273.75 26.64 C273.75 45.61, 273.75 64.58, 273.75 79.93 M273.75 79.93 C273.75 97.7, 264.87 106.58, 247.11 106.58 M273.75 79.93 C273.75 97.7, 264.87 106.58, 247.11 106.58 M247.11 106.58 C196.88 106.58, 146.65 106.58, 26.64 106.58 M247.11 106.58 C191.16 106.58, 135.21 106.58, 26.64 106.58 M26.64 106.58 C8.88 106.58, 0 97.7, 0 79.93 M26.64 106.58 C8.88 106.58, 0 97.7, 0 79.93 M0 79.93 C0 63, 0 46.07, 0 26.64 M0 79.93 C0 61.57, 0 43.2, 0 26.64 M0 26.64 C0 8.88, 8.88 0, 26.64 0 M0 26.64 C0 8.88, 8.88 0, 26.64 0" stroke="#1e1e1e" stroke-width="2" fill="none"></path></g><g transform="translate(152.09292602539062 180.314453125) rotate(0 29.119964599609375 12.5)"><text x="29.119964599609375" y="17.52" font-family="Virgil, Segoe UI Emoji" font-size="20px" fill="#1e1e1e" text-anchor="middle" style="white-space: pre;" direction="ltr" dominant-baseline="alphabetic">rustls</text></g><g stroke-linecap="round" transform="translate(498.103515625 10) rotate(0 165.056640625 84.6796875)"><path d="M32 0 C91.83 0, 151.65 0, 298.11 0 M32 0 C94.47 0, 156.93 0, 298.11 0 M298.11 0 C319.45 0, 330.11 10.67, 330.11 32 M298.11 0 C319.45 0, 330.11 10.67, 330.11 32 M330.11 32 C330.11 66.13, 330.11 100.26, 330.11 137.36 M330.11 32 C330.11 63.1, 330.11 94.21, 330.11 137.36 M330.11 137.36 C330.11 158.69, 319.45 169.36, 298.11 169.36 M330.11 137.36 C330.11 158.69, 319.45 169.36, 298.11 169.36 M298.11 169.36 C209.35 169.36, 120.59 169.36, 32 169.36 M298.11 169.36 C213.9 169.36, 129.68 169.36, 32 169.36 M32 169.36 C10.67 169.36, 0 158.69, 0 137.36 M32 169.36 C10.67 169.36, 0 158.69, 0 137.36 M0 137.36 C0 98.29, 0 59.23, 0 32 M0 137.36 C0 96.27, 0 55.17, 0 32 M0 32 C0 10.67, 10.67 0, 32 0 M0 32 C0 10.67, 10.67 0, 32 0" stroke="#1e1e1e" stroke-width="2" fill="none"></path></g><g transform="translate(586.9602279663086 44.6796875) rotate(0 76.1999282836914 50)"><text x="76.1999282836914" y="17.52" font-family="Virgil, Segoe UI Emoji" font-size="20px" fill="#1e1e1e" text-anchor="middle" style="white-space: pre;" direction="ltr" dominant-baseline="alphabetic">my_rust_binary</text><text x="76.1999282836914" y="42.519999999999996" font-family="Virgil, Segoe UI Emoji" font-size="20px" fill="#1e1e1e" text-anchor="middle" style="white-space: pre;" direction="ltr" dominant-baseline="alphabetic"></text><text x="76.1999282836914" y="67.52" font-family="Virgil, Segoe UI Emoji" font-size="20px" fill="#1e1e1e" text-anchor="middle" style="white-space: pre;" direction="ltr" dominant-baseline="alphabetic"></text><text x="76.1999282836914" y="92.52" font-family="Virgil, Segoe UI Emoji" font-size="20px" fill="#1e1e1e" text-anchor="middle" style="white-space: pre;" direction="ltr" dominant-baseline="alphabetic"></text></g><g stroke-linecap="round" transform="translate(532.439453125 135.43359375) rotate(0 136.876953125 17.5)"><path d="M8.75 0 C60.95 0, 113.15 0, 265 0 M8.75 0 C64.05 0, 119.35 0, 265 0 M265 0 C270.84 0, 273.75 2.92, 273.75 8.75 M265 0 C270.84 0, 273.75 2.92, 273.75 8.75 M273.75 8.75 C273.75 13.52, 273.75 18.28, 273.75 26.25 M273.75 8.75 C273.75 12.46, 273.75 16.16, 273.75 26.25 M273.75 26.25 C273.75 32.08, 270.84 35, 265 35 M273.75 26.25 C273.75 32.08, 270.84 35, 265 35 M265 35 C180.47 35, 95.93 35, 8.75 35 M265 35 C166.91 35, 68.81 35, 8.75 35 M8.75 35 C2.92 35, 0 32.08, 0 26.25 M8.75 35 C2.92 35, 0 32.08, 0 26.25 M0 26.25 C0 21.6, 0 16.95, 0 8.75 M0 26.25 C0 19.39, 0 12.53, 0 8.75 M0 8.75 C0 2.92, 2.92 0, 8.75 0 M0 8.75 C0 2.92, 2.92 0, 8.75 0" stroke="#1e1e1e" stroke-width="2" fill="none"></path></g><g transform="translate(603.1064682006836 140.43359375) rotate(0 66.2099380493164 12.5)"><text x="66.2099380493164" y="17.52" font-family="Virgil, Segoe UI Emoji" font-size="20px" fill="#1e1e1e" text-anchor="middle" style="white-space: pre;" direction="ltr" dominant-baseline="alphabetic">openssl crate</text></g><g stroke-linecap="round" transform="translate(530.423828125 188.951171875) rotate(0 136.876953125 31.970703125)"><path d="M15.99 0 C83.96 0, 151.93 0, 257.77 0 M15.99 0 C87.72 0, 159.46 0, 257.77 0 M257.77 0 C268.43 0, 273.75 5.33, 273.75 15.99 M257.77 0 C268.43 0, 273.75 5.33, 273.75 15.99 M273.75 15.99 C273.75 24.46, 273.75 32.93, 273.75 47.96 M273.75 15.99 C273.75 28.74, 273.75 41.5, 273.75 47.96 M273.75 47.96 C273.75 58.61, 268.43 63.94, 257.77 63.94 M273.75 47.96 C273.75 58.61, 268.43 63.94, 257.77 63.94 M257.77 63.94 C167.87 63.94, 77.97 63.94, 15.99 63.94 M257.77 63.94 C198.41 63.94, 139.05 63.94, 15.99 63.94 M15.99 63.94 C5.33 63.94, 0 58.61, 0 47.96 M15.99 63.94 C5.33 63.94, 0 58.61, 0 47.96 M0 47.96 C0 39.65, 0 31.34, 0 15.99 M0 47.96 C0 40.59, 0 33.23, 0 15.99 M0 15.99 C0 5.33, 5.33 0, 15.99 0 M0 15.99 C0 5.33, 5.33 0, 15.99 0" stroke="#1e1e1e" stroke-width="2" fill="none"></path></g><g transform="translate(589.8908615112305 208.421875) rotate(0 77.40991973876953 12.5)"><text x="77.40991973876953" y="17.52" font-family="Virgil, Segoe UI Emoji" font-size="20px" fill="#1e1e1e" text-anchor="middle" style="white-space: pre;" direction="ltr" dominant-baseline="alphabetic">/usr/lib/libssl.so</text></g></svg>