<svg width="1001" height="329" xmlns="http://www.w3.org/2000/svg" xmlns:xlink="http://www.w3.org/1999/xlink" xml:space="preserve" overflow="hidden"><g transform="translate(-41 -493)"><g><g><g><g><path d="M383.032 1.19635 440.557 1.19635 440.557 7.07842 415.234 7.07842 415.234 73.7751 408.355 73.7751 408.355 7.17812 383.032 7.17812 383.032 1.19635Z" fill="#FFFFFF" fill-rule="nonzero" fill-opacity="1" transform="matrix(1.00305 0 0 1 42 494.05)"/><path d="M447.336 1.19635 454.215 1.19635 454.215 32.7003 497.284 32.7003 497.284 1.19635 504.163 1.19635 504.163 73.7751 497.284 73.7751 497.284 38.6821 454.215 38.6821 454.215 73.7751 447.336 73.7751 447.336 1.19635Z" fill="#FFFFFF" fill-rule="nonzero" fill-opacity="1" transform="matrix(1.00305 0 0 1 42 494.05)"/><path d="M518.918 1.19635 569.065 1.19635 569.065 7.07842 525.897 7.07842 525.897 33.2985 566.274 33.2985 566.274 39.1805 525.797 39.1805 525.797 67.7933 569.464 67.7933 569.464 73.7751 518.818 73.7751 518.818 1.19635 518.918 1.19635Z" fill="#FFFFFF" fill-rule="nonzero" fill-opacity="1" transform="matrix(1.00305 0 0 1 42 494.05)"/><path d="M383.032 253.826 429.092 253.826 429.092 259.708 390.011 259.708 390.011 285.928 424.705 285.928 424.705 291.81 389.911 291.81 389.911 326.405 383.032 326.405 383.032 253.826Z" fill="#FFFFFF" fill-rule="nonzero" fill-opacity="1" transform="matrix(1.00305 0 0 1 42 494.05)"/><path d="M467.973 252.331C490.704 252.331 502.069 270.176 502.069 290.116 502.069 310.055 490.704 327.9 467.973 327.9 445.243 327.9 433.678 310.055 433.678 290.116 433.678 270.176 445.043 252.331 467.973 252.331ZM467.973 322.018C487.115 322.018 495.19 305.967 495.19 290.116 495.19 274.264 487.015 258.213 467.973 258.213 448.931 258.213 440.657 274.264 440.657 290.116 440.657 305.967 448.732 322.018 467.973 322.018Z" fill="#FFFFFF" fill-rule="nonzero" fill-opacity="1" transform="matrix(1.00305 0 0 1 42 494.05)"/><path d="M512.139 253.826 519.018 253.826 519.018 298.789C519.018 315.538 526.794 322.018 540.253 322.018 553.712 322.018 561.588 315.538 561.588 298.789L561.588 253.826 568.467 253.826 568.467 300.285C568.467 315.239 560.391 327.9 540.253 327.9 520.114 327.9 512.139 315.239 512.139 300.285L512.139 253.826Z" fill="#FFFFFF" fill-rule="nonzero" fill-opacity="1" transform="matrix(1.00305 0 0 1 42 494.05)"/><path d="M582.424 253.826 590.101 253.826 632.372 315.239 632.571 315.239 632.571 253.826 639.45 253.826 639.45 326.405 631.774 326.405 589.503 264.992 589.303 264.992 589.303 326.405 582.424 326.405 582.424 253.826Z" fill="#FFFFFF" fill-rule="nonzero" fill-opacity="1" transform="matrix(1.00305 0 0 1 42 494.05)"/><path d="M654.106 253.826 679.229 253.826C701.162 254.325 712.528 266.089 712.528 290.116 712.528 314.142 701.162 325.906 679.229 326.405L654.106 326.405 654.106 253.826ZM660.985 320.523 675.74 320.523C696.576 320.523 705.649 311.849 705.649 290.116 705.649 268.382 696.576 259.708 675.74 259.708L660.985 259.708 660.985 320.523Z" fill="#FFFFFF" fill-rule="nonzero" fill-opacity="1" transform="matrix(1.00305 0 0 1 42 494.05)"/><path d="M744.929 253.826 752.605 253.826 781.019 326.405 773.641 326.405 764.768 303.874 731.769 303.874 722.996 326.405 715.618 326.405 744.929 253.826ZM733.962 297.991 762.475 297.991 748.418 260.805 733.962 297.991Z" fill="#FFFFFF" fill-rule="nonzero" fill-opacity="1" transform="matrix(1.00305 0 0 1 42 494.05)"/><path d="M772.943 253.826 830.468 253.826 830.468 259.708 805.145 259.708 805.145 326.405 798.266 326.405 798.266 259.708 772.943 259.708 772.943 253.826Z" fill="#FFFFFF" fill-rule="nonzero" fill-opacity="1" transform="matrix(1.00305 0 0 1 42 494.05)"/><path d="M837.846 253.826 844.725 253.826 844.725 326.405 837.846 326.405 837.846 253.826Z" fill="#FFFFFF" fill-rule="nonzero" fill-opacity="1" transform="matrix(1.00305 0 0 1 42 494.05)"/><path d="M890.286 252.331C913.016 252.331 924.382 270.176 924.382 290.116 924.382 310.055 913.016 327.9 890.286 327.9 867.555 327.9 855.99 310.055 855.99 290.116 855.99 270.176 867.356 252.331 890.286 252.331ZM890.286 322.018C909.427 322.018 917.503 305.967 917.503 290.116 917.503 274.264 909.328 258.213 890.286 258.213 871.244 258.213 862.969 274.264 862.969 290.116 862.969 305.967 871.044 322.018 890.286 322.018Z" fill="#FFFFFF" fill-rule="nonzero" fill-opacity="1" transform="matrix(1.00305 0 0 1 42 494.05)"/><path d="M935.049 253.826 942.726 253.826 984.997 315.239 985.196 315.239 985.196 253.826 992.075 253.826 992.075 326.405 984.399 326.405 942.128 264.992 941.928 264.992 941.928 326.405 935.049 326.405 935.049 253.826Z" fill="#FFFFFF" fill-rule="nonzero" fill-opacity="1" transform="matrix(1.00305 0 0 1 42 494.05)"/><path d="M383.032 95.4091 423.01 95.4091 423.01 191.915 480.435 191.915 480.435 225.213 382.933 225.213 382.933 95.4091 383.032 95.4091Z" fill="#FFFFFF" fill-rule="nonzero" fill-opacity="1" transform="matrix(1.00305 0 0 1 42 494.05)"/><path d="M506.655 95.4091 546.633 95.4091 546.633 225.213 506.655 225.213 506.655 95.4091Z" fill="#FFFFFF" fill-rule="nonzero" fill-opacity="1" transform="matrix(1.00305 0 0 1 42 494.05)"/><path d="M576.443 95.4091 617.318 95.4091 655.103 164.897 655.502 164.897 655.502 95.4091 693.286 95.4091 693.286 225.213 654.405 225.213 614.626 154.329 614.227 154.329 614.227 225.213 576.443 225.213 576.443 95.4091Z" fill="#FFFFFF" fill-rule="nonzero" fill-opacity="1" transform="matrix(1.00305 0 0 1 42 494.05)"/><path d="M841.136 175.066C841.136 211.256 822.094 228.304 782.016 228.304 741.938 228.304 722.697 211.256 722.697 175.066L722.697 95.4091 762.675 95.4091 762.675 166.094C762.675 179.154 762.475 195.903 782.115 195.903 801.756 195.903 801.058 179.154 801.058 166.094L801.058 95.4091 841.036 95.4091 841.036 175.066 841.136 175.066Z" fill="#FFFFFF" fill-rule="nonzero" fill-opacity="1" transform="matrix(1.00305 0 0 1 42 494.05)"/><path d="M904.742 156.124 861.972 95.4091 908.929 95.4091 928.569 130.702 947.81 95.4091 992.175 95.4091 950.602 156.523 996.96 225.213 948.807 225.213 926.675 186.531 903.745 225.213 857.884 225.213 904.742 156.124Z" fill="#FFFFFF" fill-rule="nonzero" fill-opacity="1" transform="matrix(1.00305 0 0 1 42 494.05)"/><path d="M65.4006 261.104 65.4006 130.602 0 130.602 0 326.405 195.903 326.405 195.903 261.104 65.4006 261.104Z" fill="#FFFFFF" fill-rule="nonzero" fill-opacity="1" transform="matrix(1.00305 0 0 1 42 494.05)"/><path d="M326.305 0 0 0 0 97.9015 65.3009 97.9015 65.3009 65.6 261.104 65.6 261.104 261.104 228.503 261.104 228.503 326.405 326.305 326.405 326.305 0Z" fill="#FFFFFF" fill-rule="nonzero" fill-opacity="1" transform="matrix(1.00305 0 0 1 42 494.05)"/></g></g></g></g></g></svg>